<svg width="1400" height="587" viewBox="0 0 1400 587" fill="none" xmlns="http://www.w3.org/2000/svg">
<path opacity="0.9" d="M-1686.22 129.629C-1686.22 129.629 -1088.08 50.5076 -297.445 99.3005C577.243 153.238 1616.68 184.07 2359.2 120.548C3101.71 57.0257 3027.62 28.3242 3027.62 28.3242" stroke="white" stroke-miterlimit="10"/>
<path opacity="0.9" d="M-1659.78 236.285C-1659.78 236.285 -1058.53 157.098 -264.781 205.826C613.77 259.582 1331.41 245.281 2077.82 181.678C2824.22 118.074 3082.56 159.231 3082.56 159.231" stroke="white" stroke-miterlimit="10"/>
<path opacity="0.9" d="M-1683.5 549.91C-1683.5 549.91 -1065.88 617.189 -284.743 553.074C579.893 482.287 1299.16 482.549 2058.14 531.445C2817.11 580.341 3065.7 534.232 3065.7 534.232" stroke="white" stroke-miterlimit="10"/>
</svg>
